<?xml version="1.0" standalone="no"?>
<!DOCTYPE svg PUBLIC "-//W3C//DTD SVG 20010904//EN"
 "http://www.w3.org/TR/2001/REC-SVG-20010904/DTD/svg10.dtd">
<svg version="1.0" xmlns="http://www.w3.org/2000/svg"
 width="700.000000pt" height="700.000000pt" viewBox="0 0 700.000000 700.000000"
 preserveAspectRatio="xMidYMid meet">
<metadata>
Created by potrace 1.14, written by Peter Selinger 2001-2017
</metadata>
<g transform="translate(0.000000,700.000000) scale(0.100000,-0.100000)"
fill="#000000" stroke="none">
<path d="M3065 6057 c-71 -38 -145 -108 -171 -163 -14 -28 -19 -61 -19 -119 0
-92 28 -165 86 -224 43 -43 128 -81 177 -80 l37 1 -32 10 c-101 33 -125 163
-45 247 l37 39 -35 6 c-116 18 -121 166 -10 269 28 26 48 47 43 47 -4 0 -35
-15 -68 -33z"/>
<path d="M3984 6049 c58 -51 86 -104 86 -163 0 -60 -34 -102 -92 -111 l-42 -7
27 -20 c15 -11 37 -38 48 -61 42 -82 7 -179 -74 -205 l-32 -10 40 -1 c41 -1
123 33 160 66 40 35 73 89 89 142 16 56 22 152 9 165 -4 3 -8 16 -10 27 -9 58
-95 144 -190 193 -71 35 -74 33 -19 -15z"/>
<path d="M3487 5998 c-25 -35 -42 -65 -38 -68 4 -3 14 -14 22 -26 8 -11 26
-35 42 -53 l27 -33 28 33 c32 38 62 81 62 90 0 11 -83 119 -91 119 -4 0 -27
-28 -52 -62z"/>
<path d="M3363 5845 c-28 -19 -47 -78 -37 -113 4 -15 8 -33 10 -39 5 -24 49
-71 84 -88 62 -31 240 -26 240 7 0 5 4 7 9 4 15 -9 70 55 81 93 13 46 13 84 0
76 -5 -3 -7 0 -4 9 10 25 -40 66 -79 66 -42 0 -62 -21 -53 -55 6 -23 26 -36
26 -16 0 11 38 21 55 15 25 -10 34 -57 19 -94 -64 -150 -361 -115 -356 43 1
46 62 78 76 41 9 -23 36 1 36 31 0 37 -66 49 -107 20z"/>
<path d="M2334 5751 c-56 -18 -160 -112 -150 -136 3 -8 2 -15 -3 -15 -10 0
-21 -36 -14 -44 3 -3 7 -23 8 -46 4 -44 21 -74 38 -63 5 3 7 1 4 -4 -9 -14 29
-47 44 -37 7 4 10 3 5 -4 -7 -12 48 -26 105 -25 103 2 178 115 116 177 -44 44
-107 14 -107 -49 0 -29 -3 -32 -35 -33 -101 -4 -135 136 -51 210 17 15 35 28
39 28 5 0 6 3 4 8 -3 4 5 8 16 8 12 1 40 4 62 6 106 14 253 -34 335 -108 24
-21 78 -85 122 -141 88 -112 141 -154 198 -157 21 0 36 -5 33 -9 -6 -11 73 -2
107 11 56 22 108 99 114 170 4 40 -14 93 -40 119 -13 14 -17 14 -25 2 -7 -11
-9 -11 -9 4 0 13 -8 17 -35 17 -68 0 -98 -65 -51 -110 24 -21 34 -22 86 -9 9
3 16 -5 18 -21 2 -14 9 -32 15 -40 10 -13 10 -13 -4 -2 -14 11 -18 9 -23 -11
-13 -52 -141 -94 -209 -68 -13 5 -84 70 -158 144 -144 144 -227 202 -331 232
-68 19 -156 18 -224 -4z"/>
<path d="M4535 5760 c-110 -27 -217 -103 -367 -259 -59 -61 -111 -111 -117
-111 -6 0 -11 -4 -11 -9 0 -5 -33 -9 -74 -8 -41 1 -72 5 -70 9 3 4 -1 8 -9 8
-8 0 -22 9 -32 20 -10 11 -21 18 -24 15 -7 -4 -12 20 -15 70 -1 22 3 29 14 25
35 -10 81 -3 95 16 53 70 -38 135 -120 84 -25 -16 -34 -31 -45 -74 -7 -31 -9
-59 -4 -67 5 -8 10 -23 11 -33 8 -52 78 -124 109 -112 8 3 13 2 10 -3 -17 -26
104 -21 169 8 50 22 81 52 170 166 131 169 231 225 405 227 117 2 203 -63 203
-153 0 -71 -36 -109 -103 -109 -27 0 -30 3 -30 33 0 38 -7 50 -37 66 -48 25
-101 -24 -89 -82 14 -72 68 -110 151 -109 57 0 132 31 127 51 -1 7 2 10 7 6
20 -11 70 102 53 119 -3 3 -6 19 -7 36 -5 60 -82 135 -169 164 -51 16 -148 20
-201 6z"/>
<path d="M3516 5495 c-10 -14 -29 -34 -44 -43 l-28 -17 48 -45 47 -45 45 43
45 42 -45 45 c-24 25 -46 45 -48 45 -2 0 -11 -11 -20 -25z"/>
<path d="M2141 5361 c-8 -5 -10 -14 -6 -21 5 -9 4 -11 -3 -6 -8 5 -12 -1 -12
-16 0 -32 9 -42 54 -66 49 -26 133 -23 202 7 49 22 57 39 10 21 -36 -13 -154
-21 -161 -11 -3 5 -1 20 4 33 6 16 5 29 -4 41 -15 20 -64 31 -84 18z"/>
<path d="M4865 5356 c-14 -10 -17 -21 -12 -49 5 -33 3 -36 -21 -41 -26 -6
-115 5 -157 19 -20 6 -20 6 -1 -9 32 -26 126 -49 176 -42 60 8 110 43 110 77
0 49 -54 75 -95 45z"/>
<path d="M3305 5321 c-16 -33 -83 -91 -103 -91 -7 0 -11 -3 -9 -7 11 -18 -213
-17 -303 1 -107 21 -224 16 -283 -13 -28 -13 -91 -65 -149 -122 -113 -111
-161 -139 -234 -139 -53 0 -138 37 -162 72 -25 34 -31 18 -9 -24 28 -53 116
-139 170 -166 44 -22 122 -43 131 -35 3 3 25 6 50 8 55 3 125 42 178 99 34 37
38 39 38 18 0 -12 12 -41 27 -63 26 -40 28 -40 34 -18 31 117 155 199 364 239
33 7 82 24 108 38 57 31 127 95 127 117 0 8 4 15 8 15 5 0 15 23 24 50 18 56
16 64 -7 21z m-1000 -470 c3 -5 2 -12 -3 -15 -5 -3 -9 1 -9 9 0 17 3 19 12 6z"/>
<path d="M3761 5329 c-2 -39 48 -126 63 -111 4 3 4 0 1 -9 -4 -10 8 -26 32
-46 58 -46 91 -60 216 -92 179 -46 274 -104 312 -193 11 -24 20 -45 22 -47 7
-10 43 47 49 77 l6 33 37 -38 c40 -43 110 -87 156 -98 57 -13 65 -14 71 -4 4
6 11 6 20 -2 10 -8 14 -8 14 -1 0 6 6 9 14 6 23 -9 121 45 172 95 45 44 104
125 104 144 0 5 -13 -4 -29 -19 -17 -15 -27 -32 -24 -37 3 -6 2 -7 -4 -4 -6 4
-27 -3 -49 -13 -24 -13 -58 -20 -94 -20 -72 0 -114 26 -238 149 -113 112 -155
133 -267 137 -44 2 -100 -1 -125 -6 -93 -17 -127 -21 -203 -21 -128 0 -214 41
-249 121 -6 13 -7 13 -7 -1z"/>
<path d="M3521 5252 c-6 -10 -25 -29 -43 -41 l-33 -23 47 -48 48 -47 48 47 47
48 -33 23 c-18 12 -37 31 -43 41 -5 10 -14 18 -19 18 -5 0 -14 -8 -19 -18z"/>
<path d="M3300 5071 c0 -11 -29 -42 -63 -68 l-28 -21 28 -17 c15 -9 37 -28 48
-43 l20 -27 45 45 45 45 -47 47 c-27 26 -48 44 -48 39z"/>
<path d="M3725 5026 l-40 -42 46 -45 46 -45 18 27 c11 15 32 34 47 44 l29 17
-28 21 c-15 12 -36 32 -46 44 -10 13 -21 23 -25 22 -4 0 -25 -20 -47 -43z"/>
<path d="M3500 5028 c-43 -46 15 -124 66 -90 23 15 34 50 25 75 -16 42 -59 49
-91 15z"/>
<path d="M3495 4835 l-41 -43 43 -45 42 -45 43 43 44 43 -44 46 c-24 25 -44
45 -45 45 -1 -1 -20 -21 -42 -44z"/>
<path d="M2061 4738 c-17 -22 -28 -46 -24 -51 3 -6 2 -7 -4 -4 -9 6 -64 -78
-125 -193 -90 -168 -162 -414 -184 -622 -3 -34 -8 -65 -10 -67 -1 -1 1 -13 6
-26 5 -13 6 -26 2 -29 -11 -12 -10 -111 2 -118 8 -6 8 -8 0 -8 -6 0 -10 -10
-9 -22 2 -13 6 -60 9 -105 4 -46 14 -116 22 -155 9 -40 18 -85 21 -100 3 -15
9 -25 14 -22 5 3 6 -2 3 -10 -7 -19 26 -127 36 -121 5 3 6 -3 3 -13 -2 -10 9
-47 25 -82 26 -59 32 -65 60 -67 l32 -2 -17 42 c-9 23 -19 47 -23 52 -4 6 -10
22 -14 38 -3 15 -11 27 -17 27 -6 0 -8 4 -4 10 3 5 -6 44 -19 87 -30 96 -53
211 -65 323 -9 90 -7 300 3 366 3 21 8 59 12 84 23 178 115 434 218 610 20 34
33 66 30 72 -4 6 -2 8 3 5 6 -4 29 20 51 52 40 56 41 59 23 75 -24 22 -25 22
-60 -26z"/>
<path d="M4948 4757 c-15 -12 -12 -18 24 -72 22 -33 43 -62 46 -65 21 -15 130
-242 169 -350 35 -96 76 -258 87 -340 3 -25 8 -56 11 -70 20 -98 -4 -475 -36
-578 -6 -18 -9 -42 -6 -53 3 -10 2 -17 -2 -15 -4 3 -17 -30 -30 -72 -13 -42
-29 -90 -37 -107 -16 -38 -44 -107 -44 -110 0 -7 56 2 62 10 19 26 79 197 74
211 -3 8 -2 13 3 10 10 -7 55 169 48 189 -3 7 -2 15 3 17 15 6 24 130 24 338
0 183 -3 218 -27 333 -34 158 -82 301 -147 433 -56 113 -178 304 -194 304 -6
0 -18 -6 -28 -13z"/>
<path d="M2184 4673 c-16 -21 -28 -41 -26 -45 1 -5 -2 -8 -7 -8 -13 0 -101
-147 -146 -244 -48 -104 -100 -264 -119 -368 -9 -45 -18 -96 -21 -113 -11 -54
-13 -338 -4 -405 6 -36 11 -76 13 -90 2 -14 11 -59 20 -100 9 -41 16 -79 16
-83 0 -5 3 -6 8 -4 4 3 7 -7 8 -21 1 -30 39 -133 85 -229 25 -54 45 -73 62
-60 2 1 11 -4 20 -11 9 -8 22 -10 29 -6 7 4 10 4 6 -1 -5 -5 75 -55 90 -55 2
0 -5 14 -15 30 -9 17 -21 30 -25 30 -4 0 -7 3 -6 8 1 4 -17 48 -41 97 -60 128
-57 120 -90 230 -79 268 -86 552 -20 820 53 211 159 431 282 585 20 24 34 47
32 51 -3 3 -24 9 -48 12 -23 3 -50 9 -58 12 -11 4 -26 -7 -45 -32z"/>
<path d="M4825 4700 c-16 -4 -47 -11 -68 -15 l-39 -6 24 -23 c13 -12 28 -29
33 -38 6 -8 30 -44 54 -79 55 -81 151 -280 185 -385 48 -147 67 -266 71 -444
5 -239 -21 -398 -100 -601 -20 -52 -37 -98 -38 -104 -1 -5 -5 -12 -8 -15 -7
-6 -79 -137 -79 -144 0 -3 21 5 48 18 26 13 66 30 90 37 28 8 41 17 38 26 -3
7 -2 13 3 13 16 0 79 157 115 291 28 104 31 121 47 229 12 82 15 329 4 400
-13 91 -15 106 -26 155 -29 141 -71 262 -139 400 -32 66 -69 131 -82 145 -13
13 -21 25 -18 26 3 0 -14 29 -38 63 -24 33 -44 61 -45 60 -1 0 -15 -4 -32 -9z"/>
<path d="M2973 4622 l-82 -3 2 -837 2 -837 278 -2 c194 -1 275 2 270 9 -4 7
-1 8 8 3 12 -8 53 -8 124 0 63 7 121 16 135 21 8 3 26 8 40 10 14 3 27 9 28
15 2 5 7 7 12 4 17 -11 220 78 220 96 0 5 6 9 13 9 7 0 23 11 34 23 11 13 29
30 39 38 58 42 155 215 158 279 0 21 4 36 7 34 3 -2 11 12 17 31 7 26 7 35 -1
35 -8 0 -8 3 1 8 8 5 13 36 15 85 1 42 5 77 8 77 10 0 5 45 -6 52 -7 5 -7 8 0
8 15 0 9 78 -6 97 -10 12 -10 15 -1 9 15 -9 15 -2 1 89 -14 98 -47 207 -61
199 -7 -5 -8 -2 -4 5 10 16 -13 73 -27 64 -6 -3 -7 -1 -3 6 9 15 -21 64 -34
56 -6 -3 -7 0 -5 7 10 25 -146 174 -171 164 -8 -3 -13 0 -11 6 1 6 -29 25 -68
41 -38 16 -80 34 -92 40 -12 5 -31 7 -42 4 -12 -3 -19 -1 -16 3 5 8 -12 13
-80 25 -16 3 -41 7 -55 10 -68 13 -457 24 -647 17z m835 -107 c-3 -3 -9 2 -12
12 -6 14 -5 15 5 6 7 -7 10 -15 7 -18z m-605 -80 c26 0 47 4 47 8 0 5 6 5 13
-1 8 -7 18 -7 27 -2 8 5 18 6 23 3 5 -3 57 -7 115 -9 97 -2 215 -17 252 -31 8
-3 23 -8 32 -9 10 -2 46 -19 82 -38 35 -19 67 -31 71 -28 4 4 5 3 4 -3 -2 -5
19 -32 45 -60 45 -47 107 -156 113 -200 2 -11 6 -27 10 -35 9 -21 8 -18 18
-100 24 -211 -1 -397 -71 -530 -46 -86 -58 -100 -126 -149 -26 -19 -45 -38
-41 -44 3 -6 1 -7 -5 -3 -6 4 -28 -1 -49 -9 -137 -59 -243 -70 -608 -65 l-40
0 1 651 c1 537 4 653 15 660 7 4 16 5 19 1 3 -4 26 -7 53 -7z m-116 -80 c0 -8
-4 -12 -9 -9 -5 3 -6 10 -3 15 9 13 12 11 12 -6z m880 -70 c0 -8 -4 -12 -9 -9
-5 3 -6 10 -3 15 9 13 12 11 12 -6z m78 -84 c3 -5 2 -12 -3 -15 -5 -3 -9 1 -9
9 0 17 3 19 12 6z m81 -156 c-1 -8 -5 -17 -8 -21 -5 -4 -4 16 1 34 3 9 9 -1 7
-13z m-71 -765 c3 -6 -1 -7 -9 -4 -18 7 -21 14 -7 14 6 0 13 -4 16 -10z"/>
<path d="M950 3481 c0 -4 12 -13 27 -20 43 -20 97 -67 128 -111 41 -59 55
-126 61 -295 3 -82 12 -181 20 -220 33 -166 151 -332 307 -435 68 -45 203
-104 222 -96 8 3 15 1 17 -4 3 -8 65 -19 148 -25 47 -4 44 -1 -30 28 -19 8
-39 13 -43 13 -5 -1 -13 7 -18 17 -6 9 -14 17 -19 17 -16 0 -114 101 -146 150
-60 90 -83 171 -84 287 0 124 36 241 95 312 l29 33 -35 -7 c-78 -17 -129 -57
-168 -130 -12 -22 -21 -38 -22 -35 0 3 -3 34 -5 69 -6 79 -36 170 -75 233 -37
57 -106 121 -121 112 -6 -4 -8 -3 -5 3 9 14 -99 69 -171 87 -82 21 -112 26
-112 17z"/>
<path d="M6020 3474 c-62 -13 -159 -49 -170 -63 -3 -3 -18 -13 -34 -21 -41
-21 -98 -77 -131 -130 -44 -69 -65 -137 -72 -229 l-6 -83 -19 38 c-27 57 -85
111 -136 129 -66 22 -77 19 -48 -11 76 -83 119 -273 94 -417 -28 -158 -184
-348 -318 -388 -22 -7 -40 -16 -40 -20 0 -7 17 -6 115 6 37 4 87 16 100 24 6
3 18 7 28 8 75 12 234 117 314 209 135 154 178 285 182 554 3 212 36 281 175
372 65 42 62 43 -34 22z"/>
<path d="M1910 2810 c0 -4 13 -13 29 -19 15 -7 43 -28 61 -46 18 -19 37 -32
41 -29 5 3 6 -2 3 -10 -3 -9 -2 -16 3 -16 5 0 10 -6 11 -12 0 -7 5 -31 11 -53
5 -22 12 -78 16 -125 11 -149 24 -200 67 -281 47 -89 187 -221 245 -231 10 -2
24 -9 31 -15 15 -15 80 -33 137 -40 62 -7 144 -9 138 -3 -6 6 -104 41 -120 42
-7 1 -10 5 -8 9 6 9 -24 21 -36 13 -5 -3 -9 -2 -7 3 1 4 -21 31 -48 59 -52 52
-91 120 -102 176 -18 99 5 231 53 301 l25 37 -28 -6 c-37 -9 -91 -53 -113 -93
-24 -46 -25 -46 -28 1 -4 82 -52 183 -111 236 -41 38 -109 74 -126 68 -8 -3
-13 -2 -10 3 5 8 -29 18 -116 36 -10 2 -18 0 -18 -5z"/>
<path d="M5120 2813 c-202 -31 -323 -138 -352 -310 l-12 -72 -23 41 c-27 47
-44 63 -92 84 -39 18 -51 12 -28 -13 57 -64 83 -241 50 -340 -20 -59 -51 -109
-92 -147 -16 -16 -27 -34 -24 -40 3 -6 3 -8 -2 -4 -11 11 -47 -11 -39 -24 4
-7 2 -8 -5 -4 -6 4 -23 1 -36 -8 -14 -9 -49 -23 -77 -31 -52 -13 -47 -18 22
-18 258 0 503 196 544 435 2 15 7 65 11 110 3 46 11 108 17 138 11 57 60 144
87 154 30 12 104 62 81 55 -3 -1 -16 -3 -30 -6z"/>
<path d="M3516 2560 c-15 -30 -40 -65 -56 -78 l-29 -23 38 -38 c22 -22 45 -55
52 -75 7 -20 16 -36 20 -36 4 0 13 16 19 36 7 20 30 54 51 75 l38 38 -22 18
c-30 24 -62 71 -74 108 l-10 30 -27 -55z"/>
<path d="M2847 2482 c-9 -2 -15 -8 -12 -13 3 -5 0 -7 -7 -4 -18 7 -67 -41 -85
-84 -27 -64 -20 -138 22 -232 45 -98 52 -147 35 -231 -15 -76 -49 -146 -95
-193 -33 -35 -119 -81 -163 -88 -12 -2 -24 -6 -27 -9 -10 -9 -88 12 -107 29
-24 21 -23 44 3 78 18 22 28 26 51 21 25 -5 27 -3 19 13 -17 31 -39 43 -78 43
-30 0 -43 -6 -65 -33 -32 -38 -37 -60 -25 -111 11 -46 47 -83 106 -110 39 -17
58 -20 126 -15 80 6 201 42 235 71 8 7 23 16 33 19 11 4 15 12 11 18 -4 7 -3
9 3 6 16 -10 70 51 89 100 21 54 16 80 -47 258 -63 180 -65 285 -4 335 9 8 25
15 35 17 15 2 17 -3 13 -42 -5 -39 -2 -47 23 -70 24 -22 35 -26 64 -21 38 6
84 50 76 72 -3 8 0 14 6 14 13 0 4 49 -18 96 -10 22 -22 33 -30 30 -8 -3 -13
0 -11 6 6 29 -98 47 -176 30z m159 -122 c0 -12 -4 -16 -9 -11 -5 5 -6 14 -3
20 10 15 12 14 12 -9z m-640 -640 c0 -12 -4 -16 -9 -11 -5 5 -6 14 -3 20 10
15 12 14 12 -9z"/>
<path d="M4051 2472 c-55 -27 -76 -64 -76 -131 0 -59 9 -76 52 -99 27 -15 56
-16 48 -2 -3 6 1 7 10 4 36 -14 73 53 55 100 -8 22 -7 26 8 26 22 0 67 -45 80
-80 20 -55 -3 -177 -65 -340 -46 -121 -47 -172 -5 -233 17 -24 47 -56 66 -71
43 -33 132 -74 166 -78 14 -2 28 -7 32 -13 4 -6 51 -10 105 -10 88 0 102 3
135 26 21 14 46 37 57 51 23 29 42 116 23 104 -8 -5 -10 -2 -6 8 7 19 -41 73
-73 81 -25 6 -51 -5 -77 -31 -19 -19 -21 -35 -3 -28 8 3 25 0 39 -5 16 -6 30
-6 37 0 7 6 8 5 2 -2 -5 -6 -7 -26 -4 -44 4 -25 0 -37 -17 -53 -19 -17 -33
-21 -84 -18 -169 7 -300 149 -311 337 -3 60 6 98 46 184 16 35 32 83 35 107 7
51 -10 121 -39 162 -43 60 -164 85 -236 48z"/>
<path d="M3165 2201 c-16 -19 -52 -44 -79 -56 l-49 -21 56 -28 c31 -15 67 -39
79 -54 l23 -28 27 32 c15 17 52 42 80 54 l53 23 -43 19 c-24 11 -60 36 -80 56
l-37 37 -30 -34z"/>
<path d="M3490 2233 c-101 -40 -82 -195 25 -204 43 -3 58 2 86 30 40 40 41 98
2 141 -28 31 -81 46 -113 33z"/>
<path d="M3824 2199 c-16 -18 -51 -41 -78 -54 l-49 -21 52 -23 c60 -26 101
-58 101 -80 0 -10 13 -2 36 21 19 21 58 48 86 61 50 24 50 24 23 31 -34 9
-114 63 -122 82 -8 20 -16 18 -49 -17z"/>
<path d="M1407 2144 c-1 -1 -49 -4 -107 -8 -58 -4 -107 -11 -108 -17 -2 -5 -8
-7 -12 -4 -5 3 -42 -2 -82 -11 -143 -32 -236 -77 -423 -203 -152 -103 -230
-142 -315 -160 -62 -13 -202 -13 -263 1 -64 14 -66 4 -3 -25 32 -15 62 -24 67
-21 5 3 9 1 9 -4 0 -5 10 -12 23 -15 12 -3 51 -14 87 -25 59 -17 66 -18 78 -3
11 15 12 15 6 0 -4 -13 4 -18 42 -24 191 -28 431 26 588 134 50 35 67 40 44
14 -16 -18 -35 -78 -32 -100 1 -7 2 -21 3 -31 1 -23 48 -95 71 -110 16 -10 18
-7 18 24 0 91 124 243 263 321 225 127 496 148 761 59 40 -13 74 -23 76 -21 7
6 -71 54 -80 49 -4 -3 -8 0 -8 5 0 15 -98 63 -112 55 -6 -4 -8 -3 -5 3 7 11
-178 77 -193 68 -5 -3 -10 -1 -10 5 0 6 -10 10 -22 9 -13 -2 -33 3 -45 9 -19
10 -23 10 -23 0 0 -10 -2 -10 -9 0 -5 9 -37 14 -89 17 -45 2 -86 6 -92 10 -5
3 -10 0 -10 -7 0 -8 -3 -9 -8 -3 -5 8 -77 15 -85 9z"/>
<path d="M5508 2145 c-2 -1 -42 -5 -89 -8 -154 -11 -299 -49 -439 -115 -83
-39 -185 -101 -178 -108 9 -8 68 22 61 31 -5 4 -3 5 4 1 6 -3 49 4 95 16 69
19 108 23 238 23 173 0 249 -16 384 -79 171 -79 314 -237 318 -350 1 -21 6
-32 12 -29 19 8 59 64 71 100 14 42 3 117 -22 145 -25 27 -10 22 57 -21 135
-88 292 -133 459 -132 117 1 321 40 321 62 0 5 6 6 13 4 6 -3 44 11 82 30 l70
35 -50 -8 c-27 -4 -104 -7 -170 -6 -108 1 -127 4 -190 29 -38 16 -126 67 -195
114 -148 100 -224 144 -305 177 -67 28 -167 56 -205 58 -14 1 -30 5 -36 9 -6
3 -49 9 -96 12 -47 3 -95 7 -106 10 -12 2 -24 -1 -27 -6 -4 -5 -11 -6 -17 -3
-12 8 -54 14 -60 9z"/>
<path d="M3501 1920 c-13 -28 -38 -64 -54 -80 l-31 -30 31 -33 c34 -35 73
-103 73 -127 0 -8 11 8 24 35 13 28 39 66 59 85 l35 35 -35 39 c-19 21 -44 58
-55 82 -10 24 -20 44 -21 44 -1 0 -13 -23 -26 -50z"/>
<path d="M2959 1719 c-1 -105 -24 -210 -59 -267 -22 -37 -89 -71 -130 -68 -33
3 -60 48 -44 73 6 10 26 20 45 23 33 5 33 6 12 18 -12 6 -32 12 -45 12 -29 0
-71 -28 -62 -41 3 -5 0 -8 -8 -7 -16 4 -27 -67 -15 -102 12 -37 62 -78 103
-86 142 -26 296 53 365 187 21 43 61 151 57 154 -2 1 -32 16 -68 33 -36 17
-84 50 -107 73 l-43 41 -1 -43z"/>
<path d="M4045 1713 c-22 -20 -68 -49 -102 -65 -35 -17 -63 -36 -63 -44 0 -27
44 -130 76 -180 65 -98 147 -144 269 -151 70 -4 84 -2 100 13 10 11 20 17 22
14 9 -12 54 45 50 62 -3 10 -1 18 4 18 10 0 12 40 3 64 -3 9 -10 14 -14 11 -4
-3 -7 3 -6 12 3 36 -81 56 -118 28 -19 -14 -18 -15 10 -15 40 0 57 -13 57 -45
0 -37 -15 -48 -62 -48 -101 0 -163 106 -175 299 -2 30 -5 56 -7 58 -2 2 -22
-12 -44 -31z"/>
<path d="M3234 1572 c-33 -151 -124 -276 -242 -334 -61 -30 -75 -33 -157 -33
-72 1 -106 6 -170 29 -97 34 -161 36 -208 7 -43 -26 -58 -62 -53 -124 6 -60
39 -114 76 -123 3 0 12 -4 21 -8 17 -7 82 -2 110 9 16 6 39 45 39 65 0 18 -39
50 -60 50 -16 0 -19 -5 -16 -24 5 -27 -9 -36 -53 -36 -59 0 -81 71 -36 115 33
34 71 32 160 -11 107 -50 157 -64 266 -71 111 -7 175 5 263 49 99 50 211 172
263 288 66 146 65 140 16 141 -21 1 -47 3 -58 4 -62 9 -93 15 -122 24 -31 9
-33 8 -39 -17z"/>
<path d="M3785 1590 c-11 -5 -32 -9 -47 -9 -16 -1 -28 -5 -28 -10 0 -4 -11 -6
-25 -3 -14 2 -25 0 -25 -5 0 -5 -22 -7 -50 -6 -47 3 -60 -4 -42 -21 4 -4 7
-11 8 -14 3 -28 18 -62 27 -62 6 0 8 -3 4 -6 -3 -3 8 -31 25 -62 73 -136 179
-237 296 -283 48 -20 76 -23 177 -23 131 0 217 19 304 69 86 50 159 43 180
-17 18 -52 -24 -100 -79 -89 -23 5 -40 34 -28 48 8 10 5 13 -11 13 -40 0 -61
-18 -61 -54 0 -94 164 -102 220 -12 28 46 29 128 3 164 -47 64 -111 69 -262
22 -93 -29 -113 -32 -178 -26 -116 9 -202 59 -280 161 -45 59 -83 139 -90 190
-6 48 -7 48 -38 35z"/>
<path d="M3502 1281 c-12 -28 -38 -65 -57 -83 -19 -18 -35 -35 -35 -39 0 -3
14 -24 31 -45 38 -48 67 -106 75 -153 l7 -36 18 53 c21 61 51 115 87 154 l24
27 -35 31 c-20 17 -48 56 -63 86 -14 30 -27 54 -28 54 0 0 -11 -22 -24 -49z"/>
</g>
</svg>
